<svg viewBox="0 0 24.1313 22" xmlns="http://www.w3.org/2000/svg" xmlns:xlink="http://www.w3.org/1999/xlink" width="24.131348" height="22.000000" fill="none">
	<rect id="heart 1" width="24.131544" height="22.000000" x="0.000000" y="0.000000" fill="rgb(255,255,255)" fill-opacity="0" />
	<g id="Group">
		<path id="Vector" d="M16.0403 3.55371C18.8858 3.55371 21.1918 5.68841 21.1918 8.67701C21.1918 14.6542 14.1672 18.0698 11.8257 19.3506C9.48407 18.0698 2.45947 14.6542 2.45947 8.67701C2.45947 5.68841 4.80101 3.55371 7.61084 3.55371C9.35294 3.55371 10.889 4.40759 11.8257 5.26147C12.7622 4.40759 14.2983 3.55371 16.0403 3.55371ZM12.7004 16.8777C13.5255 16.403 14.2702 15.9308 14.967 15.4253C17.759 13.4016 19.3185 11.19 19.3185 8.67701C19.3185 6.66184 17.8789 5.26147 16.0403 5.26147C15.0325 5.26147 13.9423 5.74818 13.1499 6.46886L11.8257 7.67625L10.5012 6.46886C9.70886 5.74818 8.61864 5.26147 7.61084 5.26147C5.79381 5.26147 4.3327 6.6755 4.3327 8.67701C4.3327 11.1909 5.89309 13.4016 8.68327 15.4253C9.38104 15.9308 10.1257 16.403 10.9508 16.8769C11.2308 17.0383 11.5081 17.1928 11.8257 17.3653C12.1431 17.1928 12.4204 17.0383 12.7004 16.8777Z" fill="rgb(255,255,255)" fill-rule="nonzero" />
	</g>
</svg>
