<svg viewBox="0 0 21.3628 20" xmlns="http://www.w3.org/2000/svg" xmlns:xlink="http://www.w3.org/1999/xlink" width="21.362793" height="20.000000" fill="none">
	<rect id="profile 1" width="21.363007" height="20.000000" x="0.000000" y="0.000000" fill="rgb(255,255,255)" fill-opacity="0" />
	<path id="Vector" d="M10.6815 9.16634C11.5618 9.16634 12.4223 8.922 13.1542 8.46409C13.8861 8.00629 14.4566 7.35555 14.7934 6.59419C15.1302 5.83283 15.2184 4.99506 15.0466 4.1868C14.8749 3.37855 14.451 2.63611 13.8286 2.0534C13.2062 1.47068 12.4132 1.07384 11.5498 0.913073C10.6864 0.752298 9.79159 0.834814 8.97837 1.15017C8.16511 1.46554 7.47002 1.9996 6.98097 2.6848C6.49193 3.37001 6.23091 4.17559 6.23091 4.99967C6.23232 6.10434 6.70168 7.16337 7.53603 7.94449C8.37038 8.72559 9.50158 9.165 10.6815 9.16634ZM10.6815 2.49967C11.2096 2.49967 11.726 2.6463 12.1651 2.921C12.6043 3.19571 12.9465 3.58615 13.1486 4.04296C13.3507 4.49978 13.4036 5.00245 13.3006 5.4874C13.1976 5.97235 12.9433 6.41781 12.5698 6.76744C12.1963 7.11707 11.7205 7.35517 11.2025 7.45164C10.6845 7.5481 10.1475 7.49859 9.65958 7.30937C9.1717 7.12015 8.75463 6.79972 8.4612 6.3886C8.16778 5.97748 8.01116 5.49413 8.01116 4.99967C8.01116 4.33663 8.2925 3.70075 8.79329 3.23191C9.2941 2.76306 9.97335 2.49967 10.6815 2.49967ZM2.67041 18.333L2.67041 14.9997C2.67183 13.895 3.14118 12.836 3.97553 12.0548C4.80988 11.2738 5.94109 10.8343 7.12103 10.833L14.242 10.833C15.422 10.8343 16.5532 11.2738 17.3876 12.0548C18.2219 12.836 18.6912 13.895 18.6927 14.9997L18.6927 18.333C18.6927 18.554 18.5988 18.766 18.4319 18.9223C18.265 19.0785 18.0386 19.1663 17.8025 19.1663C17.5665 19.1663 17.34 19.0785 17.1731 18.9223C17.0062 18.766 16.9124 18.554 16.9124 18.333L16.9124 14.9997C16.9124 14.3367 16.631 13.7008 16.1303 13.2319C15.6295 12.7631 14.9502 12.4997 14.242 12.4997L7.12103 12.4997C6.41281 12.4997 5.73359 12.7631 5.23279 13.2319C4.732 13.7008 4.45066 14.3367 4.45066 14.9997L4.45066 18.333C4.45066 18.554 4.35688 18.766 4.18995 18.9223C4.02302 19.0785 3.79661 19.1663 3.56053 19.1663C3.32446 19.1663 3.09805 19.0785 2.93112 18.9223C2.76419 18.766 2.67041 18.554 2.67041 18.333Z" fill="rgb(255,255,255)" fill-rule="nonzero" />
</svg>
