<svg viewBox="0 0 19.9238 20" xmlns="http://www.w3.org/2000/svg" xmlns:xlink="http://www.w3.org/1999/xlink" width="19.923828" height="20.000000" fill="none">
	<rect id="search 1" width="19.924021" height="20.000000" x="0.000000" y="0.000000" fill="rgb(255,255,255)" fill-opacity="0" />
	<g id="layer1">
		<path id="circle2017" d="M9.08122 1.60938C4.96465 1.60938 1.61133 4.97548 1.61133 9.10776C1.61133 13.24 4.96465 16.6127 9.08122 16.6127C10.8395 16.6127 12.4566 15.9941 13.7347 14.9671L16.8462 18.0889C17.0032 18.24 17.213 18.3233 17.4305 18.3211C17.648 18.3189 17.8559 18.2312 18.0098 18.0769C18.1638 17.9227 18.2514 17.714 18.2539 17.4957C18.2564 17.2774 18.1737 17.0667 18.0234 16.9089L14.9119 13.7856C15.9358 12.5006 16.5527 10.8748 16.5527 9.10776C16.5527 4.97548 13.1978 1.60938 9.08122 1.60938ZM9.08122 3.27607C12.3005 3.27607 14.8908 5.87623 14.8908 9.10776C14.8908 12.3393 12.3005 14.946 9.08122 14.946C5.86196 14.946 3.27166 12.3393 3.27166 9.10776C3.27166 5.87623 5.86196 3.27607 9.08122 3.27607Z" fill="rgb(68.3652,49.663,150.875)" fill-rule="nonzero" />
	</g>
</svg>
