<svg viewBox="0 0 21.2305 20" xmlns="http://www.w3.org/2000/svg" xmlns:xlink="http://www.w3.org/1999/xlink" width="21.230469" height="20.000000" fill="none">
	<rect id="shopping-cart 1" width="21.230600" height="20.000000" x="0.000488" y="0.000000" fill="rgb(255,255,255)" fill-opacity="0" />
	<g id="Group">
		<path id="Vector" d="M15.9233 17.4997C15.9233 16.5792 16.7154 15.833 17.6926 15.833C18.6697 15.833 19.4618 16.5792 19.4618 17.4997C19.4618 18.4202 18.6697 19.1663 17.6926 19.1663C16.7154 19.1663 15.9233 18.4202 15.9233 17.4997Z" fill="rgb(255,255,255)" fill-rule="evenodd" />
		<path id="Vector" d="M6.19287 17.4997C6.19287 16.5792 6.98498 15.833 7.96209 15.833C8.93923 15.833 9.73131 16.5792 9.73131 17.4997C9.73131 18.4202 8.93923 19.1663 7.96209 19.1663C6.98498 19.1663 6.19287 18.4202 6.19287 17.4997Z" fill="rgb(255,255,255)" fill-rule="evenodd" />
		<path id="Vector" d="M0.000488281 0.833333C0.000488281 0.373096 0.396541 0 0.885097 0L4.42353 0C4.84516 0 5.20819 0.280321 5.29093 0.669786L6.0339 4.16667L20.3465 4.16667C20.6101 4.16667 20.86 4.27744 21.0281 4.4688C21.1961 4.66015 21.2648 4.91215 21.2154 5.15611L19.7988 12.154C19.6775 12.7295 19.3451 13.2465 18.8599 13.6144C18.3772 13.9805 17.7737 14.1758 17.1543 14.1667L8.57114 14.1667C7.95168 14.1758 7.34822 13.9805 6.86547 13.6144C6.3805 13.2466 6.04824 12.7299 5.92677 12.1547L4.449 5.19933C4.443 5.17632 4.43802 5.15294 4.4341 5.12923L3.69843 1.66667L0.885097 1.66667C0.396541 1.66667 0.000488281 1.29357 0.000488281 0.833333L0.000488281 0.833333ZM6.38801 5.83333L7.66194 11.8293C7.70238 12.0212 7.81316 12.1935 7.97489 12.3161C8.13661 12.4387 8.33897 12.5039 8.54655 12.5002L8.5635 12.5L17.1619 12.5L17.1789 12.5002C17.3864 12.5039 17.5888 12.4387 17.7505 12.3161C17.9115 12.194 18.022 12.0227 18.0629 11.832L19.2773 5.83333L6.38801 5.83333Z" fill="rgb(255,255,255)" fill-rule="evenodd" />
	</g>
</svg>
